<?xml version="1.0" encoding="utf-8"?>
<!-- Generator: Adobe Illustrator 26.5.0, SVG Export Plug-In . SVG Version: 6.00 Build 0)  -->
<svg version="1.1" id="레이어_1" xmlns="http://www.w3.org/2000/svg" xmlns:xlink="http://www.w3.org/1999/xlink" x="0px"
	 y="0px" viewBox="0 0 425.2 127.6" style="enable-background:new 0 0 425.2 127.6;" xml:space="preserve">
<style type="text/css">
	.st0{fill:#EB2300;}
</style>
<g>
	<path d="M69.3,38.6c-6.2,0-11.1,1.5-14.5,4.6c-3.5,3.1-5.2,7.4-5.2,12.9l0,26.2l9.9,0l0-15.6l17.7,0l0-8l-17.7,0l0-2.6
		c0-3,0.9-5.2,2.6-6.7c1.8-1.5,4.4-2.2,7.8-2.2c3.4,0,6.4,0.8,8.8,2.4l3.1-7.9c-1.6-1-3.5-1.7-5.6-2.2
		C74.1,38.9,71.7,38.6,69.3,38.6z"/>
	<path d="M116.1,39.4l0,24.2c0,3.6-0.9,6.4-2.7,8.2c-1.8,1.9-4.2,2.8-7.2,2.8c-2.8,0-5-0.9-6.6-2.6c-1.6-1.7-2.4-4.3-2.4-7.8l0-24.5
		l-9.9,3.5l0,21.3c0,5.9,1.4,10.5,4.3,13.7c2.8,3.2,6.8,4.8,11.9,4.8c5.7,0,10.1-2,13-5.9l0,5.2l9.6-3.4l0-39.5L116.1,39.4z"/>
	<path d="M170.9,43.4c-2.9-3.2-6.8-4.8-12-4.8c-2.9,0-5.4,0.5-7.6,1.5c-2.2,1-4,2.5-5.5,4.4l0-5l-9.6,3.4l0,39.3l9.9,0l0-24.2
		c0-3.6,0.9-6.4,2.7-8.2c1.8-1.9,4.2-2.8,7.3-2.8c2.9,0,5.1,0.9,6.7,2.6c1.6,1.7,2.4,4.3,2.4,7.8l0,24.7l9.9-3.5l0-21.5
		C175.2,51.2,173.7,46.7,170.9,43.4z"/>
	<polygon points="224.8,39.4 213.8,39.4 194.8,59.4 194.8,39.6 184.9,43.1 184.9,82.3 194.8,82.3 194.8,71.4 200.6,65.4 214.3,82.3 
		225.9,82.3 207.1,58.5 	"/>
	<path d="M255.2,74c-2.5,0.7-5.1,1-7.6,1c-3.6,0-6.3-0.5-8-1.4c-1.7-1-2.6-2.3-2.6-4c0-1.6,0.7-2.9,2-3.7c1.3-0.9,3.3-1.3,5.8-1.3
		l12.3,0v-7.9l-11.7,0c-2.2,0-3.9-0.4-4.9-1.2c-1.1-0.8-1.6-2-1.6-3.5c0-1.6,0.8-2.9,2.4-3.9c1.6-1,4-1.4,7.2-1.4
		c4.2,0,8.2,0.9,12,2.6l2.8-7.6c-2-0.9-4.3-1.7-6.9-2.2c-2.7-0.6-5.4-0.8-8.2-0.8c-4.2,0-7.8,0.6-10.7,1.7s-5.1,2.7-6.5,4.6
		c-1.4,1.9-2.1,4-2.1,6.4c0,1.9,0.5,3.7,1.4,5.2c0.9,1.6,2.2,2.8,3.9,3.7c-2.2,0.9-3.9,2.2-5.2,3.9c-1.3,1.8-1.9,3.8-1.9,6.1
		c0,2.5,0.8,4.7,2.3,6.7c1.6,1.9,3.8,3.5,6.9,4.5c3,1.1,6.7,1.6,11,1.6c3.5,0,6.8-0.4,9.8-1.2c3.1-0.8,5.7-1.9,7.7-3.3l-3.1-7.5
		C259.9,72.4,257.7,73.3,255.2,74z"/>
	<path d="M298.3,52.7c0,3.6-0.9,6.4-2.7,8.2c-1.8,1.8-4.2,2.7-7.3,2.7c-2.9,0-5.2-0.9-6.7-2.6c-1.6-1.7-2.4-4.3-2.4-7.6l0-13.9
		l-9.9,3.5v11c0,5.8,1.5,10.3,4.4,13.3c2.9,3.1,7.1,4.6,12.5,4.6c5.2,0,9.3-1.8,12.1-5.3l0,2.6c0,3.8-0.9,6.6-2.6,8.4
		c-1.7,1.8-4.4,2.7-8,2.7c-5.2,0-9.7-1.6-13.6-4.7l-3.9,7.4c2.1,1.8,4.7,3.3,7.7,4.3c3,1,6.4,1.5,10,1.5c6.3,0,11.3-1.7,14.9-5.2
		c3.6-3.5,5.4-8.4,5.4-14.9l0-29.5l-9.9,0L298.3,52.7z"/>
	<path d="M348,62.9c-1.5-1.7-3.3-2.9-5.4-3.7c-2.1-0.8-4.8-1.6-8-2.3c-3.2-0.7-5.5-1.4-7-2.1s-2.3-1.8-2.3-3.3c0-1.5,0.7-2.7,2-3.6
		c1.3-0.9,3.4-1.3,6.2-1.3c4,0,7.9,1.1,11.9,3.4l3.1-7.5c-2-1.2-4.3-2.2-6.9-2.8c-2.6-0.7-5.3-1-8-1c-3.9,0-7.2,0.6-10,1.8
		c-2.7,1.2-4.8,2.8-6.1,4.8c-1.3,2-2,4.3-2,6.8c0,2.9,0.7,5.2,2.2,6.9c1.5,1.7,3.3,3,5.4,3.7c2.1,0.8,4.8,1.6,8,2.3
		c2.1,0.5,3.8,0.9,5.1,1.3c1.2,0.4,2.3,0.9,3.1,1.6c0.8,0.7,1.2,1.5,1.2,2.5c0,1.4-0.7,2.5-2,3.3c-1.3,0.8-3.4,1.3-6.3,1.3
		c-2.5,0-5.1-0.4-7.6-1.2c-2.5-0.8-4.7-1.9-6.6-3.3l-3.4,7.5c1.9,1.5,4.5,2.7,7.6,3.6c3.2,0.9,6.5,1.4,9.8,1.4c3.9,0,7.3-0.6,10-1.8
		c2.7-1.2,4.8-2.8,6.2-4.8c1.4-2,2.1-4.3,2.1-6.7C350.3,66.9,349.5,64.6,348,62.9z"/>
	<polygon class="st0" points="369.4,74.1 369.4,66.3 363.8,68.4 363.8,74.1 357.7,74.1 357.7,79.6 363.8,79.6 363.8,87.4 
		363.9,87.4 369.4,85.4 369.4,79.6 375.6,79.6 375.6,74.1 	"/>
</g>
</svg>
